# xmcd
#
# Track frame offsets: 
#        150
#        13370
#        32641
#        43680
#        64383
#        80469
#        104948
#        126410
#        157059
#        176265
#        194376
#        214020
#
# Disc length: 3010 seconds
#
# Revision: 0
# Processed by: cddbd v1.5.2PL0 Copyright (c) Steve Scherf et al.
# Submitted via: ExactAudioCopy v1.0b3
#
DISCID=b20bc00c
DTITLE=Магистри - Too Much Rock'n'Roll
DYEAR=2012
DGENRE=Blues
TTITLE0=Имахме време
TTITLE1=Лято
TTITLE2=Белия зъб
TTITLE3=Без трети ред
TTITLE4=I Want My Ъ
TTITLE5=Too Much Rock'n'Roll
TTITLE6=Don't Tell Me
TTITLE7=Зима
TTITLE8=Равносметка
TTITLE9=Divertissmento in C minor
TTITLE10=Time Is Running Out
TTITLE11=bonus track
EXTD=
EXTT0=
EXTT1=
EXTT2=
EXTT3=
EXTT4=
EXTT5=
EXTT6=
EXTT7=
EXTT8=
EXTT9=
EXTT10=
EXTT11=
PLAYORDER=
